<svg width="256" height="256" viewBox="0 0 256 256" fill="none" xmlns="http://www.w3.org/2000/svg">
<circle cx="128" cy="128" r="124" fill="url(#paint0_linear_284_4)" stroke="white" stroke-width="8"/>
<path d="M137.168 55.5455L135.748 160.091H119.27L117.85 55.5455H137.168ZM127.509 202.136C124.005 202.136 120.998 200.882 118.489 198.372C115.98 195.863 114.725 192.856 114.725 189.352C114.725 185.848 115.98 182.842 118.489 180.332C120.998 177.823 124.005 176.568 127.509 176.568C131.013 176.568 134.019 177.823 136.529 180.332C139.038 182.842 140.293 185.848 140.293 189.352C140.293 191.672 139.701 193.803 138.517 195.744C137.381 197.686 135.842 199.248 133.901 200.432C132.007 201.568 129.876 202.136 127.509 202.136Z" fill="white"/>
<defs>
<linearGradient id="paint0_linear_284_4" x1="128" y1="0" x2="128" y2="256" gradientUnits="userSpaceOnUse">
<stop stop-color="#FF6749"/>
<stop offset="1" stop-color="#E22727"/>
</linearGradient>
</defs>
</svg>
