<svg width="512" height="512" viewBox="0 0 512 512" fill="none" xmlns="http://www.w3.org/2000/svg">
<g filter="url(#filter0_i_285_5)">
<circle cx="256" cy="256" r="256" fill="url(#paint0_linear_285_5)"/>
</g>
<g filter="url(#filter1_d_285_5)">
<circle cx="256" cy="256" r="225" fill="url(#paint1_linear_285_5)"/>
</g>
<g filter="url(#filter2_i_285_5)">
<path d="M246.932 393.273V120.545H264.403V393.273H246.932ZM305.739 202.364C304.46 191.568 299.276 183.188 290.185 177.222C281.094 171.256 269.943 168.273 256.733 168.273C247.074 168.273 238.622 169.835 231.378 172.96C224.205 176.085 218.594 180.382 214.545 185.851C210.568 191.32 208.58 197.534 208.58 204.494C208.58 210.318 209.964 215.325 212.734 219.516C215.575 223.635 219.197 227.08 223.601 229.849C228.004 232.548 232.621 234.786 237.45 236.561C242.28 238.266 246.719 239.651 250.767 240.716L272.926 246.682C278.608 248.173 284.929 250.233 291.889 252.861C298.92 255.489 305.632 259.075 312.024 263.621C318.487 268.095 323.814 273.848 328.004 280.879C332.195 287.911 334.29 296.54 334.29 306.767C334.29 318.557 331.2 329.21 325.021 338.727C318.913 348.244 309.964 355.808 298.175 361.419C286.456 367.03 272.216 369.835 255.455 369.835C239.83 369.835 226.3 367.314 214.865 362.271C203.501 357.229 194.553 350.197 188.018 341.178C181.555 332.158 177.898 321.682 177.045 309.75H204.318C205.028 317.989 207.798 324.807 212.628 330.205C217.528 335.531 223.707 339.509 231.165 342.136C238.693 344.693 246.79 345.972 255.455 345.972C265.54 345.972 274.595 344.338 282.621 341.071C290.646 337.733 297.003 333.116 301.69 327.222C306.378 321.256 308.722 314.295 308.722 306.341C308.722 299.097 306.697 293.202 302.649 288.656C298.601 284.111 293.274 280.418 286.669 277.577C280.064 274.736 272.926 272.25 265.256 270.119L238.409 262.449C221.364 257.548 207.869 250.553 197.926 241.462C187.983 232.371 183.011 220.474 183.011 205.773C183.011 193.557 186.314 182.903 192.919 173.812C199.595 164.651 208.544 157.548 219.766 152.506C231.058 147.392 243.665 144.835 257.585 144.835C271.648 144.835 284.148 147.357 295.085 152.399C306.023 157.371 314.688 164.189 321.08 172.854C327.543 181.518 330.952 191.355 331.307 202.364H305.739Z" fill="#DCA938"/>
</g>
<defs>
<filter id="filter0_i_285_5" x="0" y="0" width="512" height="512" filterUnits="userSpaceOnUse" color-interpolation-filters="sRGB">
<feFlood flood-opacity="0" result="BackgroundImageFix"/>
<feBlend mode="normal" in="SourceGraphic" in2="BackgroundImageFix" result="shape"/>
<feColorMatrix in="SourceAlpha" type="matrix" values="0 0 0 0 0 0 0 0 0 0 0 0 0 0 0 0 0 0 127 0" result="hardAlpha"/>
<feOffset/>
<feGaussianBlur stdDeviation="5"/>
<feComposite in2="hardAlpha" operator="arithmetic" k2="-1" k3="1"/>
<feColorMatrix type="matrix" values="0 0 0 0 0 0 0 0 0 0 0 0 0 0 0 0 0 0 0.25 0"/>
<feBlend mode="normal" in2="shape" result="effect1_innerShadow_285_5"/>
</filter>
<filter id="filter1_d_285_5" x="21" y="21" width="470" height="470" filterUnits="userSpaceOnUse" color-interpolation-filters="sRGB">
<feFlood flood-opacity="0" result="BackgroundImageFix"/>
<feColorMatrix in="SourceAlpha" type="matrix" values="0 0 0 0 0 0 0 0 0 0 0 0 0 0 0 0 0 0 127 0" result="hardAlpha"/>
<feOffset/>
<feGaussianBlur stdDeviation="5"/>
<feComposite in2="hardAlpha" operator="out"/>
<feColorMatrix type="matrix" values="0 0 0 0 0 0 0 0 0 0 0 0 0 0 0 0 0 0 0.25 0"/>
<feBlend mode="normal" in2="BackgroundImageFix" result="effect1_dropShadow_285_5"/>
<feBlend mode="normal" in="SourceGraphic" in2="effect1_dropShadow_285_5" result="shape"/>
</filter>
<filter id="filter2_i_285_5" x="177.046" y="120.545" width="157.244" height="272.729" filterUnits="userSpaceOnUse" color-interpolation-filters="sRGB">
<feFlood flood-opacity="0" result="BackgroundImageFix"/>
<feBlend mode="normal" in="SourceGraphic" in2="BackgroundImageFix" result="shape"/>
<feColorMatrix in="SourceAlpha" type="matrix" values="0 0 0 0 0 0 0 0 0 0 0 0 0 0 0 0 0 0 127 0" result="hardAlpha"/>
<feOffset/>
<feGaussianBlur stdDeviation="5"/>
<feComposite in2="hardAlpha" operator="arithmetic" k2="-1" k3="1"/>
<feColorMatrix type="matrix" values="0 0 0 0 0 0 0 0 0 0 0 0 0 0 0 0 0 0 0.25 0"/>
<feBlend mode="normal" in2="shape" result="effect1_innerShadow_285_5"/>
</filter>
<linearGradient id="paint0_linear_285_5" x1="256" y1="0" x2="256" y2="512" gradientUnits="userSpaceOnUse">
<stop stop-color="#EAB43E"/>
<stop offset="1" stop-color="#E6AE35"/>
</linearGradient>
<linearGradient id="paint1_linear_285_5" x1="256" y1="31" x2="256" y2="481" gradientUnits="userSpaceOnUse">
<stop stop-color="#F4F470"/>
<stop offset="1" stop-color="#E6BC20"/>
</linearGradient>
</defs>
</svg>
